<?xml version="1.0" encoding="iso-8859-1"?>
<!-- Generator: Adobe Illustrator 19.0.0, SVG Export Plug-In . SVG Version: 6.00 Build 0)  -->
<svg version="1.1" id="Layer_1" xmlns="http://www.w3.org/2000/svg" xmlns:xlink="http://www.w3.org/1999/xlink" x="0px" y="0px"
	 viewBox="0 0 508 508" style="enable-background:new 0 0 508 508;" xml:space="preserve">
<path style="fill:#73BADD;" d="M254,250h248V58c0-29.6-24.4-52-54-52c0,0-194-1.6-194-1.2V250z"/>
<path style="fill:#E36D60;" d="M258,250V4.8c0-0.4,0,1.2,0,1.2H64C34.4,6,10,28.4,10,58v190.4c0-0.4,0.8,1.6,1.2,1.6H258z"/>
<path style="fill:#61C2AB;" d="M11.2,254c-0.4,0-1.2-2.4-1.2-2.4V446c0,29.6,24,56,54,56h194V254H11.2z"/>
<path style="fill:#FFC52F;" d="M258,502h190c29.6,0,54-26.4,54-56V250H258V502z"/>
<path d="M448,508H60c-33.2,0-60-26.8-60-60V60C0,26.8,26.8,0,60,0h388c33.2,0,60,26.8,60,60v388C508,481.2,481.2,508,448,508z M60,8
	C31.2,8,8,31.2,8,60v388c0,28.8,23.2,52,52,52h388c28.8,0,52-23.2,52-52V60c0-28.8-23.2-52-52-52H60z"/>
<path d="M254,256H6c-2.4,0-4-1.6-4-4s1.6-4,4-4h248c2.4,0,4,1.6,4,4S256.4,256,254,256z"/>
<path d="M502,256H294c-2.4,0-4-1.6-4-4s1.6-4,4-4h208c2.4,0,4,1.6,4,4S504.4,256,502,256z"/>
<path d="M256,506c-2.4,0-4-1.6-4-4V42c0-2.4,1.6-4,4-4s4,1.6,4,4v460C260,504.4,258.4,506,256,506z"/>
<path d="M210,136H66c-2.4,0-4-1.6-4-4s1.6-4,4-4h144c2.4,0,4,1.6,4,4S212.4,136,210,136z"/>
<path d="M462,136H318c-2.4,0-4-1.6-4-4s1.6-4,4-4h144c2.4,0,4,1.6,4,4S464.4,136,462,136z"/>
<path d="M462,380H318c-2.4,0-4-1.6-4-4s1.6-4,4-4h144c2.4,0,4,1.6,4,4S464.4,380,462,380z"/>
<path d="M136,206c-2.4,0-4-1.6-4-4V58c0-2.4,1.6-4,4-4s4,1.6,4,4v144C140,204.4,138.4,206,136,206z"/>
<path d="M72.4,442c-1.2,0-2-0.4-2.8-1.2c-1.6-1.6-1.6-4,0-5.6l127.6-127.6c1.6-1.6,4-1.6,5.6,0s1.6,4,0,5.6L75.2,440.8
	C74.4,441.6,73.6,442,72.4,442z"/>
<path d="M200.4,442c-1.2,0-2-0.4-2.8-1.2l-128-128c-1.6-1.6-1.6-4,0-5.6s4-1.6,5.6,0l128,128c1.6,1.6,1.6,4,0,5.6
	C202.4,441.6,201.2,442,200.4,442z"/>
<path d="M392.4,338c-8.8,0-16-7.2-16-16s7.2-16,16-16s16,7.2,16,16S401.2,338,392.4,338z M392.4,314c-4.4,0-8,3.6-8,8s3.6,8,8,8
	s8-3.6,8-8S396.8,314,392.4,314z"/>
<path d="M392.4,442c-8.8,0-16-7.2-16-16s7.2-16,16-16s16,7.2,16,16S401.2,442,392.4,442z M392.4,418c-4.4,0-8,3.6-8,8s3.6,8,8,8
	s8-3.6,8-8S396.8,418,392.4,418z"/>
<g>
</g>
<g>
</g>
<g>
</g>
<g>
</g>
<g>
</g>
<g>
</g>
<g>
</g>
<g>
</g>
<g>
</g>
<g>
</g>
<g>
</g>
<g>
</g>
<g>
</g>
<g>
</g>
<g>
</g>
</svg>
